<mxfile host="app.diagrams.net" modified="2023-04-13T08:56:08.672Z" agent="Mozilla/5.0 (Macintosh; Intel Mac OS X 10_15_7) AppleWebKit/537.36 (KHTML, like Gecko) Chrome/112.0.0.0 Safari/537.36" version="21.1.5" etag="cxkfCcyk1pgK0vplfddO" type="github">
  <diagram name="第 1 页" id="K2hMBKYkeD5TxXZCcAcU">
    <mxGraphModel>
      <root>
        <mxCell id="0" />
        <mxCell id="1" parent="0" />
      </root>
    </mxGraphModel>
  </diagram>
</mxfile>
